<svg width="114" height="28" viewBox="0 0 114 28" fill="none" xmlns="http://www.w3.org/2000/svg">
<line x1="26.5996" y1="15.5559" x2="44.5996" y2="15.5559" stroke="#417A82"/>
<line x1="70.5996" y1="15.5559" x2="88.5996" y2="15.5559" stroke="#417A82"/>
<ellipse cx="13.5" cy="14.5402" rx="9.5" ry="9.60391" fill="#417A82"/>
<path d="M10.9626 17.8918C10.9386 17.8918 10.9266 17.8678 10.9266 17.8198C10.9266 17.7718 10.9386 17.7478 10.9626 17.7478C11.3946 17.7478 11.7066 17.6878 11.8986 17.5678C12.0906 17.4478 12.2186 17.2198 12.2826 16.8838L13.0266 12.6598C13.0586 12.4358 13.0746 12.2958 13.0746 12.2398C13.0746 12.1038 13.0506 12.0038 13.0026 11.9398C12.9626 11.8758 12.8946 11.8438 12.7986 11.8438C12.5986 11.8438 12.3226 11.9598 11.9706 12.1918H11.9586C11.9266 12.1918 11.9026 12.1798 11.8866 12.1558C11.8706 12.1238 11.8706 12.0998 11.8866 12.0838L14.4186 10.2958L14.4666 10.2838C14.4986 10.2838 14.5226 10.2998 14.5386 10.3318C14.5546 10.3558 14.5586 10.3838 14.5506 10.4158L13.3986 16.9678C13.3826 17.0398 13.3746 17.1318 13.3746 17.2438C13.3746 17.4518 13.4466 17.5878 13.5906 17.6518C13.7346 17.7158 14.0026 17.7478 14.3946 17.7478C14.4186 17.7478 14.4306 17.7718 14.4306 17.8198C14.4306 17.8678 14.4186 17.8918 14.3946 17.8918C14.0906 17.8918 13.8466 17.8878 13.6626 17.8798L12.6906 17.8678L11.6706 17.8798C11.4946 17.8878 11.2586 17.8918 10.9626 17.8918Z" fill="#E3F6F5"/>
<path d="M66.5 14.5402C66.5 19.5733 62.4654 23.6441 57.5 23.6441C52.5346 23.6441 48.5 19.5733 48.5 14.5402C48.5 9.5071 52.5346 5.43628 57.5 5.43628C62.4654 5.43628 66.5 9.5071 66.5 14.5402Z" stroke="#417A82"/>
<path d="M54.6155 17.8918C54.5915 17.8918 54.5675 17.8598 54.5435 17.7958C54.5195 17.7318 54.5075 17.6678 54.5075 17.6038C54.5075 17.5638 54.5155 17.5278 54.5315 17.4958C55.3795 16.5678 56.0195 15.8478 56.4515 15.3358C56.8835 14.8158 57.2315 14.3238 57.4955 13.8598C57.7595 13.3958 57.9315 12.9278 58.0115 12.4558C58.0435 12.2878 58.0595 12.1238 58.0595 11.9638C58.0595 11.3398 57.7635 11.0278 57.1715 11.0278C56.8195 11.0278 56.5195 11.1278 56.2715 11.3278C56.0235 11.5198 55.8435 11.7678 55.7315 12.0718C55.7235 12.1038 55.6995 12.1198 55.6595 12.1198C55.6355 12.1198 55.6115 12.1118 55.5875 12.0958C55.5715 12.0718 55.5675 12.0478 55.5755 12.0238C55.7515 11.4878 56.0475 11.0598 56.4635 10.7398C56.8795 10.4198 57.3435 10.2598 57.8555 10.2598C58.3275 10.2598 58.6835 10.3918 58.9235 10.6558C59.1635 10.9198 59.2835 11.2718 59.2835 11.7118C59.2835 11.8078 59.2675 11.9678 59.2355 12.1918C59.1635 12.6158 59.0115 13.0198 58.7795 13.4038C58.5475 13.7878 58.2875 14.1358 57.9995 14.4478C57.7195 14.7518 57.3475 15.1278 56.8835 15.5758C56.4035 16.0398 56.0355 16.4198 55.7795 16.7158C55.7555 16.7318 55.7675 16.7398 55.8155 16.7398C56.5595 16.7398 57.1195 16.7158 57.4955 16.6678C57.8715 16.6198 58.1355 16.5398 58.2875 16.4278C58.4475 16.3078 58.5475 16.1278 58.5875 15.8878C58.5875 15.8558 58.6075 15.8398 58.6475 15.8398C58.6715 15.8398 58.6915 15.8478 58.7075 15.8638C58.7315 15.8798 58.7395 15.8958 58.7315 15.9118L58.3955 17.8078C58.3875 17.8638 58.3475 17.8918 58.2755 17.8918H54.6155Z" fill="#417A82"/>
<path d="M110.5 14.5402C110.5 19.5733 106.465 23.6441 101.5 23.6441C96.5346 23.6441 92.5 19.5733 92.5 14.5402C92.5 9.5071 96.5346 5.43628 101.5 5.43628C106.465 5.43628 110.5 9.5071 110.5 14.5402Z" fill="#E3F6F5" stroke="#417A82"/>
<path d="M103.39 11.6518C103.39 12.1318 103.222 12.5918 102.886 13.0318C102.55 13.4718 102.114 13.7878 101.578 13.9798C102.01 14.0118 102.342 14.1678 102.574 14.4478C102.814 14.7278 102.934 15.0678 102.934 15.4678C102.934 15.5878 102.922 15.7158 102.898 15.8518C102.794 16.5078 102.51 17.0358 102.046 17.4358C101.59 17.8358 101.042 18.0358 100.402 18.0358C99.6984 18.0358 99.1624 17.7198 98.7944 17.0878L98.7824 17.0758C98.7824 17.0598 98.7984 17.0438 98.8304 17.0278C98.8704 17.0038 98.8944 16.9998 98.9024 17.0158C99.0304 17.1758 99.1984 17.3038 99.4064 17.3998C99.6144 17.4958 99.8104 17.5438 99.9944 17.5438C100.49 17.5438 100.874 17.3838 101.146 17.0638C101.426 16.7438 101.61 16.3318 101.698 15.8278C101.73 15.6758 101.746 15.5118 101.746 15.3358C101.746 14.5198 101.282 14.1118 100.354 14.1118C100.322 14.1118 100.306 14.0918 100.306 14.0518C100.306 14.0038 100.322 13.9798 100.354 13.9798C100.89 13.9798 101.294 13.8318 101.566 13.5358C101.846 13.2398 102.03 12.8238 102.118 12.2878C102.15 12.1198 102.166 11.9478 102.166 11.7718C102.166 11.1798 101.898 10.8838 101.362 10.8838C101.082 10.8838 100.798 10.9638 100.51 11.1238C100.222 11.2758 99.9984 11.4918 99.8384 11.7718C99.8304 11.7958 99.8104 11.8078 99.7784 11.8078C99.7544 11.8078 99.7344 11.7998 99.7184 11.7838C99.7024 11.7598 99.7024 11.7358 99.7184 11.7118C99.9424 11.2798 100.254 10.9318 100.654 10.6678C101.062 10.3958 101.49 10.2598 101.938 10.2598C102.378 10.2598 102.73 10.3878 102.994 10.6438C103.258 10.8998 103.39 11.2358 103.39 11.6518Z" fill="#417A82"/>
</svg>
